<svg aria-hidden="true" style="position: absolute; width: 0; height: 0; overflow: hidden;" version="1.1" xmlns="http://www.w3.org/2000/svg" xmlns:xlink="http://www.w3.org/1999/xlink">
<defs>
<symbol id="icon-appStore" viewBox="0 0 108 32">
<path fill="#a6a6a6" style="fill: var(--color1, #a6a6a6)" d="M99.399 0h-90.794c-0.331 0-0.658 0-0.988 0.002-0.277 0.002-0.55 0.006-0.83 0.010-0.606 0.006-1.21 0.054-1.808 0.141-0.641 0.097-1.219 0.273-1.757 0.518l0.041-0.017c-0.559 0.256-1.041 0.572-1.467 0.949l0.006-0.005c-0.419 0.367-0.773 0.795-1.051 1.272l-0.013 0.024c-0.257 0.439-0.453 0.949-0.558 1.492l-0.005 0.031c-0.095 0.478-0.154 1.030-0.162 1.595l-0 0.007c-0.008 0.246-0.009 0.492-0.014 0.737v18.493c0.005 0.248 0.006 0.488 0.014 0.737 0.008 0.537 0.062 1.072 0.162 1.602 0.111 0.574 0.306 1.085 0.576 1.547l-0.012-0.023c0.274 0.478 0.633 0.914 1.064 1.291 0.426 0.382 0.92 0.7 1.461 0.943 0.497 0.229 1.074 0.405 1.678 0.499l0.037 0.005c0.598 0.088 1.202 0.134 1.808 0.142 0.28 0.006 0.554 0.009 0.83 0.009 0.33 0.002 0.657 0.002 0.988 0.002h90.794c0.325 0 0.654 0 0.978-0.002 0.275 0 0.558-0.003 0.832-0.008 0.644-0.008 1.269-0.059 1.88-0.152l-0.075 0.009c0.644-0.099 1.223-0.275 1.764-0.521l-0.042 0.017c0.559-0.254 1.041-0.57 1.465-0.95l-0.005 0.005c0.418-0.367 0.772-0.793 1.053-1.267l0.013-0.024c0.273-0.48 0.461-0.994 0.558-1.524 0.101-0.529 0.157-1.064 0.168-1.602 0.003-0.248 0.003-0.488 0.003-0.737 0.007-0.291 0.007-0.58 0.007-0.875v-16.742c0-0.293 0-0.584-0.007-0.874 0-0.245 0-0.491-0.003-0.736-0.012-0.575-0.073-1.127-0.178-1.663l0.010 0.061c-0.109-0.573-0.303-1.083-0.571-1.546l0.013 0.023c-0.557-0.962-1.441-1.746-2.526-2.24-0.499-0.228-1.078-0.404-1.684-0.497l-0.037-0.005c-0.597-0.088-1.2-0.135-1.806-0.141-0.274-0.004-0.557-0.009-0.832-0.010-0.324-0.002-0.654-0.002-0.978-0.002z"></path>
<path fill="#000" style="fill: var(--color2, #000)" d="M7.544 31.302c-0.275 0-0.544-0.003-0.818-0.008-0.603-0.007-1.188-0.055-1.76-0.14l0.071 0.009c-0.56-0.086-1.064-0.239-1.535-0.453l0.036 0.015c-0.484-0.218-0.9-0.491-1.267-0.818l0.005 0.004c-0.364-0.316-0.671-0.685-0.912-1.097l-0.011-0.021c-0.224-0.382-0.395-0.826-0.486-1.299l-0.004-0.027c-0.088-0.447-0.142-0.964-0.15-1.493l-0-0.007c-0.006-0.169-0.014-0.731-0.014-0.731v-18.484s0.008-0.554 0.014-0.716c0.008-0.535 0.062-1.051 0.158-1.553l-0.009 0.055c0.086-0.463 0.252-0.912 0.491-1.33 0.236-0.414 0.546-0.792 0.918-1.118 0.372-0.33 0.8-0.606 1.268-0.818 0.433-0.198 0.936-0.35 1.462-0.431l0.032-0.004c0.561-0.081 1.128-0.125 1.696-0.131l0.815-0.010 93.738 0.010c0.563 0.006 1.125 0.049 1.68 0.13 0.564 0.086 1.073 0.239 1.547 0.453l-0.037-0.015c0.938 0.428 1.702 1.106 2.184 1.936 0.235 0.416 0.398 0.861 0.483 1.32 0.094 0.499 0.146 1.004 0.158 1.51 0.002 0.226 0.002 0.47 0.002 0.712 0.007 0.3 0.007 0.586 0.007 0.874v16.746c0 0.29 0 0.574-0.007 0.86 0 0.261 0 0.499-0.003 0.744-0.010 0.498-0.062 0.993-0.154 1.483-0.094 0.503-0.264 0.951-0.5 1.356l0.011-0.020c-0.238 0.41-0.548 0.784-0.918 1.11-0.37 0.33-0.797 0.607-1.266 0.818-0.437 0.201-0.945 0.355-1.476 0.436l-0.032 0.004c-0.558 0.081-1.124 0.125-1.69 0.13-0.265 0.006-0.542 0.009-0.811 0.009l-0.981 0.002-91.936-0.002z"></path>
<path fill="#fff" style="fill: var(--color3, #fff)" d="M26.238 16.24c0.019-1.4 0.761-2.622 1.869-3.312l0.017-0.010c-0.719-1.016-1.874-1.683-3.186-1.725l-0.006-0c-1.344-0.141-2.646 0.804-3.33 0.804-0.698 0-1.752-0.79-2.887-0.767-1.536 0.051-2.86 0.909-3.567 2.161l-0.011 0.021c-1.547 2.679-0.393 6.616 1.090 8.781 0.741 1.061 1.608 2.245 2.742 2.203 1.11-0.046 1.524-0.708 2.864-0.708 1.326 0 1.715 0.708 2.872 0.681 1.191-0.019 1.942-1.064 2.657-2.135 0.506-0.71 0.92-1.53 1.198-2.411l0.017-0.062c-1.383-0.596-2.335-1.947-2.336-3.52v-0zM24.053 9.768c0.562-0.671 0.903-1.543 0.903-2.494 0-0.105-0.004-0.209-0.012-0.311l0.001 0.014c-1.028 0.111-1.925 0.6-2.562 1.324l-0.004 0.004c-0.573 0.65-0.923 1.508-0.923 2.448 0 0.085 0.003 0.169 0.008 0.252l-0.001-0.011c0.010 0 0.022 0 0.034 0 1.030 0 1.949-0.475 2.551-1.218l0.005-0.006zM40.264 21.712h-3.786l-0.909 2.685h-1.604l3.586-9.934h1.666l3.586 9.934h-1.631l-0.908-2.685zM36.87 20.472h3.002l-1.48-4.357h-0.042l-1.48 4.358zM50.55 20.776c0 2.25-1.205 3.696-3.022 3.696-0.038 0.002-0.083 0.003-0.129 0.003-0.921 0-1.724-0.507-2.144-1.257l-0.006-0.012h-0.034v3.587h-1.486v-9.639h1.439v1.205h0.027c0.453-0.772 1.279-1.281 2.224-1.281 0.029 0 0.058 0 0.087 0.001l-0.004-0c1.838 0 3.050 1.453 3.050 3.698zM49.022 20.776c0-1.466-0.758-2.43-1.914-2.43-1.136 0-1.9 0.984-1.9 2.43 0 1.459 0.765 2.437 1.9 2.437 1.157 0 1.914-0.958 1.914-2.437zM58.522 20.776c0 2.25-1.205 3.696-3.022 3.696-0.038 0.002-0.083 0.003-0.129 0.003-0.921 0-1.724-0.507-2.144-1.257l-0.006-0.012h-0.034v3.587h-1.486v-9.639h1.439v1.205h0.027c0.453-0.772 1.279-1.281 2.224-1.281 0.029 0 0.058 0 0.087 0.001l-0.004-0c1.838 0 3.050 1.453 3.050 3.698zM56.994 20.776c0-1.466-0.758-2.43-1.914-2.43-1.136 0-1.9 0.984-1.9 2.43 0 1.459 0.764 2.437 1.9 2.437 1.157 0 1.914-0.958 1.914-2.437zM63.791 21.629c0.11 0.986 1.067 1.632 2.375 1.632 1.253 0 2.154-0.646 2.154-1.535 0-0.771-0.544-1.232-1.831-1.549l-1.288-0.31c-1.824-0.44-2.67-1.294-2.67-2.678 0-1.714 1.494-2.891 3.614-2.891 2.099 0 3.538 1.178 3.587 2.891h-1.501c-0.090-0.991-0.91-1.59-2.107-1.59s-2.018 0.606-2.018 1.486c0 0.702 0.524 1.116 1.804 1.432l1.094 0.269c2.038 0.482 2.886 1.301 2.886 2.754 0 1.858-1.48 3.022-3.835 3.022-2.203 0-3.69-1.136-3.786-2.934h1.522zM73.1 15.44v1.714h1.377v1.178h-1.377v3.993c0 0.621 0.275 0.91 0.881 0.91 0.164-0.003 0.327-0.014 0.49-0.034v1.17c-0.272 0.051-0.55 0.074-0.826 0.069-1.466 0-2.038-0.551-2.038-1.955v-4.152h-1.053v-1.178h1.053v-1.714h1.494zM75.274 20.776c0-2.279 1.342-3.711 3.435-3.711 2.1 0 3.436 1.432 3.436 3.711 0 2.285-1.329 3.71-3.436 3.71s-3.435-1.426-3.435-3.71zM80.631 20.776c0-1.563-0.717-2.486-1.922-2.486s-1.92 0.93-1.92 2.486c0 1.57 0.716 2.485 1.92 2.485s1.922-0.915 1.922-2.485zM83.371 17.154h1.418v1.233h0.034c0.195-0.758 0.872-1.309 1.678-1.309 0.023 0 0.045 0 0.068 0.001l-0.003-0c0.171-0.001 0.342 0.018 0.509 0.055v1.39c-0.181-0.057-0.39-0.091-0.606-0.091-0.022 0-0.044 0-0.065 0.001l0.003-0c-0.018-0.001-0.039-0.001-0.061-0.001-0.827 0-1.498 0.671-1.498 1.498 0 0.060 0.004 0.119 0.010 0.177l-0.001-0.007v4.296h-1.487v-7.243zM93.93 22.27c-0.2 1.314-1.481 2.217-3.119 2.217-2.107 0-3.414-1.411-3.414-3.676 0-2.272 1.314-3.746 3.352-3.746 2.004 0 3.264 1.376 3.264 3.573v0.51h-5.115v0.090c-0.005 0.051-0.008 0.109-0.008 0.169 0 0.784 0.48 1.456 1.162 1.739l0.012 0.005c0.248 0.102 0.514 0.149 0.782 0.138 0.046 0.005 0.099 0.007 0.152 0.007 0.684 0 1.271-0.419 1.517-1.015l0.004-0.011h1.412zM88.904 20.108h3.622c0.002-0.030 0.003-0.065 0.003-0.101 0-0.96-0.778-1.738-1.738-1.738-0.015 0-0.029 0-0.043 0.001l0.002-0c-0.002 0-0.005-0-0.008-0-0.506 0-0.964 0.204-1.297 0.535l0-0c-0.334 0.333-0.54 0.794-0.54 1.302 0 0.001 0 0.001 0 0.002v-0zM36.684 6.985c0.045-0.003 0.097-0.005 0.15-0.005 1.166 0 2.112 0.946 2.112 2.112 0 0.094-0.006 0.186-0.018 0.276l0.001-0.011c0 1.525-0.824 2.402-2.246 2.402h-1.725v-4.774h1.725zM35.701 11.083h0.9c0.027 0.002 0.059 0.003 0.091 0.003 0.828 0 1.5-0.672 1.5-1.5 0-0.077-0.006-0.154-0.017-0.228l0.001 0.008c0.009-0.061 0.014-0.132 0.014-0.204 0-0.832-0.674-1.506-1.506-1.506-0.029 0-0.058 0.001-0.087 0.002l0.004-0h-0.9v3.424zM39.768 9.955c-0.006-0.052-0.009-0.112-0.009-0.173 0-0.943 0.764-1.707 1.707-1.707s1.707 0.764 1.707 1.707c0 0.061-0.003 0.121-0.009 0.181l0.001-0.007c0.004 0.046 0.007 0.099 0.007 0.152 0 0.942-0.764 1.706-1.706 1.706s-1.706-0.764-1.706-1.706c0-0.054 0.002-0.107 0.007-0.159l-0.001 0.007zM42.434 9.955c0-0.781-0.35-1.237-0.966-1.237-0.618 0-0.966 0.456-0.966 1.237 0 0.787 0.348 1.24 0.966 1.24 0.616 0 0.966-0.456 0.966-1.24zM47.682 11.758h-0.738l-0.744-2.654h-0.057l-0.742 2.654h-0.73l-0.993-3.602h0.721l0.646 2.749h0.053l0.741-2.749h0.682l0.741 2.749h0.056l0.642-2.749h0.711l-0.989 3.602zM49.506 8.156h0.684v0.572h0.054c0.171-0.383 0.549-0.645 0.988-0.645 0.031 0 0.061 0.001 0.092 0.004l-0.004-0c0.026-0.002 0.056-0.003 0.086-0.003 0.648 0 1.173 0.525 1.173 1.173 0 0.060-0.005 0.119-0.013 0.177l0.001-0.006v2.332h-0.711v-2.154c0-0.579-0.251-0.867-0.777-0.867-0.011-0.001-0.024-0.001-0.037-0.001-0.457 0-0.827 0.37-0.827 0.827 0 0.030 0.002 0.060 0.005 0.090l-0-0.004v2.108h-0.711v-3.602zM53.698 6.75h0.711v5.008h-0.711v-5.008zM55.397 9.955c-0.005-0.047-0.007-0.101-0.007-0.157 0-0.942 0.764-1.706 1.706-1.706s1.706 0.764 1.706 1.706c0 0.055-0.003 0.11-0.008 0.163l0.001-0.007c0.005 0.050 0.008 0.107 0.008 0.165 0 0.943-0.764 1.707-1.707 1.707s-1.707-0.764-1.707-1.707c0-0.058 0.003-0.116 0.009-0.172l-0.001 0.007zM58.063 9.955c0-0.781-0.35-1.237-0.966-1.237-0.618 0-0.966 0.456-0.966 1.237 0 0.787 0.348 1.24 0.966 1.24 0.616 0 0.966-0.456 0.966-1.24zM59.544 10.739c0-0.648 0.482-1.022 1.339-1.075l0.976-0.056v-0.311c0-0.381-0.252-0.595-0.738-0.595-0.397 0-0.672 0.146-0.751 0.4h-0.688c0.073-0.618 0.655-1.016 1.472-1.016 0.903 0 1.413 0.45 1.413 1.211v2.462h-0.685v-0.506h-0.056c-0.218 0.343-0.596 0.567-1.026 0.567-0.020 0-0.040-0-0.059-0.001l0.003 0c-0.034 0.004-0.073 0.006-0.112 0.006-0.6 0-1.086-0.485-1.088-1.084v-0zM61.859 10.432v-0.302l-0.88 0.056c-0.496 0.034-0.721 0.202-0.721 0.52 0 0.324 0.281 0.512 0.668 0.512 0.025 0.003 0.054 0.004 0.084 0.004 0.449 0 0.816-0.347 0.849-0.788l0-0.003zM63.502 9.955c0-1.138 0.585-1.859 1.495-1.859 0.016-0.001 0.035-0.001 0.053-0.001 0.453 0 0.847 0.254 1.047 0.627l0.003 0.006h0.054v-1.978h0.711v5.008h-0.682v-0.568h-0.056c-0.22 0.378-0.623 0.629-1.085 0.629-0.016 0-0.032-0-0.049-0.001l0.002 0c-0.917 0-1.496-0.721-1.496-1.862zM64.236 9.955c0 0.764 0.36 1.224 0.962 1.224 0.599 0 0.97-0.466 0.97-1.221 0-0.75-0.374-1.224-0.97-1.224-0.598 0-0.962 0.464-0.962 1.221zM69.806 9.955c-0.006-0.052-0.009-0.111-0.009-0.172 0-0.942 0.764-1.706 1.706-1.706 0.753 0 1.392 0.488 1.618 1.165l0.004 0.012c0.075 0.226 0.102 0.464 0.080 0.701 0.004 0.044 0.006 0.096 0.006 0.148 0 0.942-0.764 1.706-1.706 1.706s-1.706-0.764-1.706-1.706c0-0.052 0.002-0.103 0.007-0.154l-0 0.007zM72.474 9.955c0-0.781-0.351-1.237-0.967-1.237-0.618 0-0.965 0.456-0.965 1.237 0 0.787 0.347 1.24 0.965 1.24 0.616 0 0.967-0.456 0.967-1.24zM74.158 8.156h0.684v0.572h0.054c0.171-0.383 0.549-0.645 0.988-0.645 0.031 0 0.061 0.001 0.091 0.004l-0.004-0c0.026-0.002 0.057-0.003 0.088-0.003 0.648 0 1.173 0.525 1.173 1.173 0 0.060-0.005 0.119-0.013 0.177l0.001-0.006v2.332h-0.712v-2.154c0-0.579-0.251-0.867-0.777-0.867-0.011-0.001-0.025-0.001-0.038-0.001-0.457 0-0.827 0.37-0.827 0.827 0 0.030 0.002 0.061 0.005 0.090l-0-0.004v2.108h-0.71v-3.602zM81.235 7.259v0.913h0.78v0.599h-0.78v1.852c0 0.378 0.155 0.542 0.509 0.542 0.091 0 0.182-0.006 0.271-0.016v0.592c-0.115 0.022-0.249 0.035-0.385 0.037h-0.001c-0.791 0-1.106-0.278-1.106-0.973v-2.034h-0.572v-0.599h0.572v-0.913h0.712zM82.986 6.75h0.705v1.986h0.056c0.179-0.386 0.564-0.649 1.010-0.649 0.031 0 0.062 0.001 0.092 0.004l-0.004-0c0.019-0.001 0.041-0.002 0.064-0.002 0.656 0 1.187 0.532 1.187 1.187 0 0.055-0.004 0.11-0.011 0.163l0.001-0.006v2.326h-0.712v-2.15c0-0.576-0.268-0.867-0.77-0.867-0.020-0.002-0.044-0.003-0.067-0.003-0.466 0-0.843 0.377-0.843 0.843 0 0.026 0.001 0.051 0.003 0.076l-0-0.003v2.104h-0.711v-5.009zM90.232 10.786c-0.185 0.612-0.745 1.051-1.406 1.051-0.054 0-0.108-0.003-0.161-0.009l0.007 0.001c-0.013 0-0.029 0.001-0.045 0.001-0.903 0-1.635-0.732-1.635-1.635 0-0.079 0.006-0.158 0.017-0.234l-0.001 0.009c-0.009-0.066-0.015-0.142-0.015-0.22 0-0.918 0.744-1.662 1.662-1.662 0.005 0 0.010 0 0.015 0h-0.001c1.002 0 1.606 0.685 1.606 1.816v0.248h-2.543v0.040c-0.002 0.024-0.003 0.052-0.003 0.080 0 0.526 0.426 0.952 0.952 0.952 0.004 0 0.007-0 0.011-0h-0.001c0.031 0.004 0.066 0.006 0.102 0.006 0.323 0 0.604-0.177 0.752-0.439l0.002-0.004h0.685zM87.731 9.625h1.819c0.001-0.019 0.002-0.041 0.002-0.063 0-0.36-0.218-0.669-0.529-0.802l-0.006-0.002c-0.099-0.042-0.213-0.067-0.334-0.067-0.007 0-0.014 0-0.021 0l0.001-0c-0.004-0-0.008-0-0.013-0-0.508 0-0.92 0.412-0.92 0.92 0 0.005 0 0.010 0 0.014v-0.001z"></path>
</symbol>
<symbol id="icon-calling" viewBox="0 0 32 32">
<path d="M19.141 2.677c-0.044-0.006-0.095-0.010-0.147-0.010-0.262 0-0.502 0.092-0.69 0.246l0.002-0.002c-0.236 0.187-0.396 0.461-0.429 0.774l-0 0.005c-0.005 0.038-0.007 0.083-0.007 0.127 0 0.587 0.442 1.072 1.011 1.139l0.005 0.001c4.308 0.483 7.694 3.875 8.163 8.144l0.004 0.041c0.067 0.574 0.55 1.015 1.136 1.015 0.631 0 1.143-0.512 1.143-1.143 0-0.045-0.003-0.090-0.008-0.133l0 0.005c-0.605-5.411-4.792-9.608-10.184-10.209zM19.224 7.32c-0.066-0.014-0.142-0.021-0.22-0.021-0.554 0-1.016 0.396-1.118 0.921l-0.001 0.007c-0.013 0.066-0.021 0.142-0.021 0.22 0 0.555 0.393 1.018 0.916 1.126l0.007 0.001c1.856 0.368 3.295 1.809 3.654 3.637l0.005 0.029c0.106 0.533 0.57 0.928 1.126 0.928 0.076 0 0.151-0.007 0.223-0.022l-0.007 0.001c0.53-0.111 0.923-0.575 0.923-1.13 0-0.077-0.007-0.151-0.022-0.224l0.001 0.007c-0.543-2.776-2.693-4.931-5.423-5.474l-0.044-0.007zM21.333 20.12c0.601-0.347 1.283-0.739 2.14-0.556 0.776 0.164 3.424 2.313 4.149 3.057 0.475 0.488 0.74 0.992 0.78 1.496 0.072 1.976-2.613 4.232-3.101 4.512-0.609 0.44-1.37 0.704-2.193 0.704-0.021 0-0.042-0-0.063-0.001l0.003 0c-0.867 0-1.833-0.247-2.888-0.739-5.72-2.387-14.459-10.953-16.769-16.629-0.96-2.113-0.965-3.856-0.016-5.165 0.379-0.615 2.536-3.183 4.467-3.101 0.515 0.044 1.013 0.308 1.504 0.787 0.741 0.727 2.837 3.383 2.999 4.163 0.179 0.867-0.213 1.555-0.563 2.16-0.116 0.197-0.211 0.345-0.309 0.49l0.023-0.036c-0.417 0.64-0.973 1.495-0.776 2.040 1.409 3.459 4.664 6.477 8.124 7.895 0.535 0.195 1.389-0.365 2.028-0.784 0.106-0.073 0.252-0.166 0.4-0.256l0.047-0.026 0.015-0.009z"></path>
</symbol>
<symbol id="icon-facebook" viewBox="0 0 16 32">
<path d="M10.356 31.941v-14.571h4.704l0.704-5.678h-5.407v-3.625c0-1.645 0.439-2.765 2.706-2.765l2.893-0.001v-5.078c-0.502-0.069-2.219-0.224-4.215-0.224-4.171 0-7.026 2.645-7.026 7.506v4.187h-4.714v5.679h4.715v14.57h5.642z"></path>
</symbol>
<symbol id="icon-googlePlay" viewBox="0 0 108 32">
<path fill="#000" style="fill: var(--color2, #000)" d="M104 0h-100c-2.209 0-4 1.791-4 4v0 24c0 2.209 1.791 4 4 4v0h100c2.209 0 4-1.791 4-4v0-24c0-2.209-1.791-4-4-4v0z"></path>
<path fill="#a6a6a6" style="fill: var(--color1, #a6a6a6)" d="M104 0.64c1.855 0.001 3.359 1.505 3.36 3.36v24c-0.001 1.855-1.505 3.359-3.36 3.36h-100c-1.855-0.002-3.358-1.505-3.36-3.36v-24c0.002-1.855 1.505-3.358 3.36-3.36h100zM104 0h-100c-2.206 0.007-3.993 1.794-4 3.999v24.001c0.007 2.206 1.794 3.993 3.999 4h100.001c2.207-0.006 3.994-1.793 4-3.999v-24.001c-0.007-2.206-1.794-3.993-3.999-4h-0.001z"></path>
<path fill="#fff" style="fill: var(--color3, #fff)" d="M37.934 8.194c0.002 0.032 0.003 0.070 0.003 0.108 0 0.58-0.228 1.107-0.599 1.496l0.001-0.001c-0.424 0.439-1.018 0.712-1.675 0.712-0.031 0-0.062-0.001-0.092-0.002l0.004 0c-0.007 0-0.014 0-0.022 0-1.365 0-2.472-1.107-2.472-2.472 0-0.012 0-0.025 0-0.037l-0 0.002c-0-0.010-0-0.022-0-0.034 0-1.366 1.107-2.474 2.474-2.474 0.007 0 0.014 0 0.021 0h-0.001c0.338-0.001 0.674 0.067 0.986 0.201 0.288 0.118 0.546 0.301 0.75 0.536l-0.422 0.423c-0.299-0.351-0.741-0.572-1.235-0.572-0.028 0-0.055 0.001-0.083 0.002l0.004-0c-0.002 0-0.005-0-0.008-0-1.025 0-1.856 0.831-1.856 1.856 0 0.021 0 0.043 0.001 0.064l-0-0.003c-0 0.009-0 0.019-0 0.029 0 1.043 0.845 1.888 1.888 1.888 0.512 0 0.977-0.204 1.317-0.536l-0 0c0.246-0.266 0.389-0.61 0.402-0.973h-1.743v-0.576h2.326c0.022 0.119 0.034 0.24 0.034 0.362zM41.622 6.19h-2.186v1.522h1.971v0.576h-1.971v1.522h2.186v0.59h-2.802v-4.8h2.802v0.59zM44.223 10.4h-0.618v-4.21h-1.341v-0.59h3.298v0.59h-1.339v4.21zM47.95 10.4v-4.8h0.616v4.8h-0.616zM51.302 10.4h-0.617v-4.21h-1.342v-0.59h3.298v0.59h-1.341v4.21zM58.888 9.78c-0.451 0.45-1.073 0.728-1.76 0.728s-1.309-0.278-1.76-0.728l0 0c-0.438-0.443-0.708-1.052-0.708-1.724 0-0.020 0-0.039 0.001-0.058l-0 0.003c-0-0.016-0.001-0.036-0.001-0.055 0-0.672 0.27-1.281 0.708-1.725l-0 0c0.45-0.45 1.071-0.728 1.757-0.728 0.687 0 1.309 0.279 1.759 0.73l0 0c0.439 0.443 0.711 1.054 0.711 1.728 0 0.017-0 0.035-0.001 0.052l0-0.003c0 0.016 0.001 0.035 0.001 0.054 0 0.673-0.27 1.282-0.708 1.726l0-0zM55.824 9.378c0.334 0.333 0.795 0.539 1.304 0.539s0.97-0.206 1.304-0.539l-0 0c0.331-0.338 0.535-0.801 0.535-1.312 0-0.023-0-0.046-0.001-0.069l0 0.003c0.001-0.019 0.001-0.042 0.001-0.065 0-0.511-0.204-0.974-0.535-1.313l0 0c-0.334-0.333-0.795-0.54-1.304-0.54s-0.97 0.206-1.304 0.54l0-0c-0.33 0.338-0.534 0.802-0.534 1.312 0 0.023 0 0.046 0.001 0.068l-0-0.003c-0.001 0.019-0.001 0.042-0.001 0.065 0 0.511 0.204 0.974 0.534 1.313l-0-0zM60.46 10.4v-4.8h0.751l2.333 3.734h0.026l-0.026-0.926v-2.808h0.617v4.8h-0.644l-2.44-3.915h-0.027l0.027 0.925v2.99h-0.616z"></path>
<path fill="#fff" style="fill: var(--color3, #fff)" d="M54.509 17.402c-1.874 0.007-3.39 1.528-3.39 3.402 0 1.879 1.523 3.402 3.402 3.402s3.402-1.523 3.402-3.402v0c0-0.015 0-0.032 0-0.049 0-1.852-1.501-3.354-3.354-3.354-0.022 0-0.044 0-0.066 0.001l0.003-0zM54.509 22.866c-0.044 0.003-0.095 0.005-0.147 0.005-1.142 0-2.067-0.926-2.067-2.067s0.926-2.067 2.067-2.067c1.142 0 2.067 0.926 2.067 2.067 0 0 0 0 0 0v-0c0.001 0.028 0.002 0.062 0.002 0.095 0 1.071-0.855 1.942-1.92 1.967l-0.002 0zM47.058 17.402c-1.873 0.008-3.389 1.528-3.389 3.402 0 1.879 1.523 3.402 3.402 3.402s3.402-1.523 3.402-3.402v0c0-0.015 0-0.032 0-0.049 0-1.852-1.501-3.354-3.354-3.354-0.022 0-0.044 0-0.066 0.001l0.003-0zM47.058 22.866c-0.044 0.003-0.095 0.005-0.147 0.005-1.142 0-2.067-0.926-2.067-2.067s0.926-2.067 2.067-2.067c1.142 0 2.067 0.926 2.067 2.067 0 0 0 0 0 0v-0c0.001 0.028 0.002 0.062 0.002 0.095 0 1.071-0.855 1.942-1.92 1.967l-0.002 0zM38.194 18.446v1.443h3.454c-0.053 0.706-0.343 1.336-0.788 1.82l0.002-0.002c-0.642 0.654-1.535 1.059-2.523 1.059-0.051 0-0.101-0.001-0.152-0.003l0.007 0c-2.097-0.031-3.785-1.739-3.785-3.84s1.688-3.809 3.782-3.84l0.003-0c0.014-0 0.031-0 0.048-0 0.993 0 1.894 0.393 2.557 1.033l-0.001-0.001 1.018-1.018c-0.909-0.9-2.161-1.457-3.542-1.457-0.028 0-0.057 0-0.085 0.001l0.004-0c-0.039-0.001-0.084-0.002-0.13-0.002-2.919 0-5.286 2.366-5.286 5.286s2.366 5.286 5.286 5.286c0.046 0 0.091-0.001 0.137-0.002l-0.007 0c0.060 0.003 0.13 0.004 0.2 0.004 1.369 0 2.606-0.57 3.485-1.485l0.002-0.002c0.777-0.846 1.253-1.978 1.253-3.222 0-0.054-0.001-0.108-0.003-0.162l0 0.008c0-0.015 0-0.033 0-0.052 0-0.301-0.028-0.595-0.083-0.88l0.005 0.029h-4.859zM74.442 19.566c-0.421-1.241-1.559-2.126-2.908-2.165l-0.005-0c-1.778 0.012-3.214 1.455-3.214 3.234 0 0.059 0.002 0.118 0.005 0.176l-0-0.008c-0.001 0.022-0.001 0.047-0.001 0.073 0 1.839 1.491 3.33 3.33 3.33 0.017 0 0.034-0 0.051-0l-0.003 0c0.006 0 0.012 0 0.019 0 1.17 0 2.201-0.594 2.809-1.496l0.008-0.012-1.16-0.773c-0.346 0.567-0.962 0.94-1.665 0.94-0.004 0-0.007 0-0.011-0h0.001c-0.020 0.001-0.043 0.001-0.066 0.001-0.703 0-1.308-0.419-1.579-1.021l-0.004-0.011 4.55-1.882-0.154-0.387zM69.802 20.701c-0.002-0.036-0.004-0.078-0.004-0.12 0-1.001 0.788-1.818 1.778-1.864l0.004-0c0.026-0.002 0.056-0.003 0.087-0.003 0.511 0 0.955 0.291 1.174 0.717l0.003 0.007-3.042 1.263zM66.102 24h1.496v-10h-1.496v10zM63.654 18.162h-0.052c-0.432-0.468-1.049-0.761-1.734-0.761-0.020 0-0.040 0-0.061 0.001l0.003-0c-1.816 0.081-3.258 1.573-3.258 3.402s1.442 3.321 3.251 3.402l0.007 0c0.018 0.001 0.040 0.001 0.062 0.001 0.687 0 1.303-0.298 1.728-0.772l0.002-0.002h0.051v0.49c0 1.302-0.696 1.998-1.817 1.998-0.781-0.019-1.442-0.511-1.71-1.199l-0.004-0.013-1.302 0.542c0.498 1.19 1.653 2.010 2.999 2.010 0.006 0 0.012-0 0.018-0h-0.001c1.752 0 3.234-1.031 3.234-3.544v-6.11h-1.418v0.554zM61.94 22.866c-1.064-0.094-1.892-0.981-1.892-2.062s0.828-1.968 1.885-2.061l0.008-0.001c1.018 0.052 1.823 0.889 1.823 1.915 0 0.056-0.002 0.112-0.007 0.167l0.001-0.007c0.004 0.045 0.006 0.097 0.006 0.15 0 1.022-0.807 1.856-1.819 1.898l-0.004 0zM81.445 14h-3.577v10h1.492v-3.789h2.085c0.052 0.003 0.112 0.005 0.173 0.005 1.717 0 3.109-1.392 3.109-3.109 0-0.445-0.094-0.869-0.262-1.252l0.008 0.020c-0.489-1.116-1.583-1.881-2.856-1.881-0.060 0-0.12 0.002-0.179 0.005l0.008-0zM81.483 18.82h-2.123v-3.428h2.123c0.010-0 0.022-0 0.034-0 0.468 0 0.891 0.187 1.201 0.489l-0-0c0.317 0.31 0.514 0.742 0.514 1.221 0 0.001 0 0.003 0 0.004v-0c0 0.001 0 0.002 0 0.004 0 0.478-0.197 0.911-0.514 1.221l-0 0c-0.309 0.303-0.733 0.49-1.201 0.49-0.012 0-0.024-0-0.036-0l0.002 0zM90.709 17.384c-0.048-0.003-0.105-0.005-0.162-0.005-1.086 0-2.028 0.617-2.494 1.52l-0.007 0.016 1.326 0.553c0.244-0.443 0.708-0.739 1.242-0.739 0.043 0 0.086 0.002 0.128 0.006l-0.005-0c0.042-0.004 0.091-0.007 0.14-0.007 0.743 0 1.355 0.564 1.429 1.288l0.001 0.006v0.102c-0.449-0.243-0.982-0.386-1.549-0.386-0.003 0-0.005 0-0.008 0h0c-1.428 0-2.882 0.785-2.882 2.251 0.046 0.97 0.682 1.779 1.555 2.081l0.016 0.005c0.22 0.077 0.474 0.121 0.738 0.121 0.061 0 0.122-0.002 0.182-0.007l-0.008 0c0.037 0.002 0.081 0.004 0.125 0.004 0.746 0 1.401-0.388 1.775-0.974l0.005-0.008h0.051v0.772h1.441v-3.834c0-1.776-1.325-2.766-3.036-2.766zM90.528 22.865c-0.489 0-1.17-0.244-1.17-0.849 0-0.772 0.849-1.068 1.582-1.068 0.021-0.001 0.046-0.001 0.071-0.001 0.475 0 0.92 0.124 1.306 0.342l-0.013-0.007c-0.117 0.89-0.865 1.572-1.775 1.582h-0.001zM98.994 17.602l-1.711 4.336h-0.051l-1.776-4.336h-1.608l2.663 6.060-1.518 3.371h1.557l4.105-9.431h-1.66zM85.549 24h1.493v-10h-1.493v10z"></path>
<path fill="#000" style="fill: var(--color2, #000)" d="M8.348 6.030c-0.232 0.276-0.373 0.635-0.373 1.027 0 0.034 0.001 0.068 0.003 0.101l-0-0.005v17.693c-0.025 0.408 0.107 0.81 0.37 1.124l0.059 0.058 9.913-9.911v-0.234l-9.912-9.912-0.059 0.058z"></path>
<path fill="#000" style="fill: var(--color2, #000)" d="M21.622 19.423l-3.304-3.306v-0.234l3.304-3.304 0.075 0.042 3.914 2.224c1.118 0.635 1.118 1.674 0 2.31l-3.99 2.267z"></path>
<path fill="#000" style="fill: var(--color2, #000)" d="M21.698 19.38l-3.379-3.379-9.97 9.97c0.228 0.202 0.53 0.325 0.861 0.325 0.304 0 0.583-0.104 0.805-0.279l-0.003 0.002 11.687-6.64z"></path>
<path fill="#000" style="fill: var(--color2, #000)" d="M21.698 12.622l-11.687-6.64c-0.219-0.172-0.498-0.276-0.802-0.276-0.331 0-0.632 0.123-0.862 0.326l0.001-0.001 9.97 9.97 3.379-3.379z"></path>
<path fill="#000" style="fill: var(--color2, #000)" opacity="0.2" d="M21.623 19.306l-11.613 6.598c-0.221 0.17-0.502 0.272-0.807 0.272-0.3 0-0.576-0.099-0.799-0.266l0.003 0.002-0.060 0.060 0.059 0.058c0.219 0.164 0.496 0.263 0.795 0.263 0.305 0 0.586-0.103 0.811-0.275l-0.003 0.002 11.687-6.64-0.074-0.074z"></path>
<path fill="#000" style="fill: var(--color2, #000)" opacity="0.12" d="M8.348 25.854c-0.232-0.276-0.373-0.636-0.373-1.028 0-0.034 0.001-0.067 0.003-0.1l-0 0.005v0.117c-0.024 0.408 0.108 0.81 0.37 1.124l0.060-0.060-0.060-0.058zM25.612 17.039l-3.989 2.266 0.074 0.074 3.914-2.224c0.461-0.204 0.788-0.637 0.838-1.15l0-0.006c-0.104 0.466-0.415 0.842-0.829 1.035l-0.009 0.004z"></path>
<path fill="#fff" style="fill: var(--color3, #fff)" opacity="0.25" d="M10.010 6.098l15.602 8.864c0.423 0.196 0.734 0.573 0.837 1.028l0.002 0.010c-0.050-0.519-0.377-0.951-0.829-1.152l-0.009-0.004-15.602-8.864c-1.118-0.635-2.032-0.107-2.032 1.174v0.117c0-1.281 0.914-1.808 2.032-1.174z"></path>
</symbol>
<symbol id="icon-instagram" viewBox="0 0 32 32">
<path d="M29.139 15.998h-0.049c0-1.333 0.026-2.667-0.007-3.998-0.032-1.257-0.079-2.516-0.207-3.765-0.122-1.195-0.544-2.297-1.349-3.226-1.13-1.299-2.619-1.846-4.268-1.948-1.877-0.114-3.761-0.143-5.643-0.165-0.638-0.008-1.392-0.013-2.146-0.013-1.22 0-2.437 0.013-3.652 0.038l0.182-0.003c-1.356 0.020-2.665 0.094-3.957 0.222l0.192-0.015c-1.195 0.122-2.297 0.544-3.226 1.349-1.299 1.129-1.846 2.62-1.948 4.268-0.114 1.877-0.143 3.761-0.165 5.643-0.023 1.871-0.015 3.744 0.021 5.616 0.026 1.257 0.079 2.516 0.207 3.765 0.122 1.195 0.543 2.297 1.349 3.226 1.129 1.299 2.619 1.847 4.268 1.948 1.877 0.114 3.761 0.143 5.643 0.165 0.642 0.010 1.4 0.016 2.159 0.016 1.215 0 2.428-0.015 3.636-0.044l-0.18 0.003c1.382-0.035 2.778-0.062 4.139-0.275 2.325-0.366 3.899-1.714 4.525-4.021 0.203-0.749 0.309-1.539 0.338-2.315 0.080-2.155 0.096-4.314 0.138-6.47zM0 21.27v-10.54c0.018-0.1 0.048-0.199 0.051-0.3 0.036-1.237 0.093-2.471 0.395-3.68 0.685-2.724 2.265-4.706 4.864-5.83 1.407-0.609 2.905-0.786 4.422-0.848 0.333-0.014 0.665-0.048 0.996-0.073h10.541c0.099 0.018 0.198 0.048 0.299 0.051 1.237 0.036 2.471 0.093 3.68 0.395 2.724 0.685 4.706 2.265 5.83 4.864 0.609 1.408 0.786 2.906 0.848 4.423 0.014 0.333 0.048 0.665 0.073 0.996v10.541c-0.018 0.099-0.048 0.198-0.051 0.299-0.036 1.237-0.093 2.471-0.395 3.68-0.685 2.724-2.265 4.706-4.864 5.83-1.408 0.609-2.906 0.786-4.423 0.848-0.333 0.014-0.665 0.048-0.996 0.073h-10.539c-0.1-0.018-0.199-0.048-0.301-0.051-1.236-0.036-2.47-0.093-3.678-0.395-2.725-0.685-4.707-2.265-5.831-4.864-0.609-1.408-0.786-2.906-0.848-4.423-0.014-0.333-0.048-0.665-0.073-0.996z"></path>
<path d="M15.996 21.323c2.912 0 5.324-2.383 5.327-5.263 0.003-2.965-2.361-5.38-5.27-5.382-2.978-0.002-5.375 2.366-5.376 5.31 0 2.944 2.384 5.335 5.319 5.335zM24.223 16.007c-0.001 4.538-3.68 8.215-8.218 8.215-0.010 0-0.020-0-0.029-0h0.002c-4.533-0.006-8.203-3.691-8.201-8.23 0.001-4.537 3.679-8.216 8.217-8.216 0.010 0 0.020 0 0.030 0h-0.002c4.533 0.007 8.203 3.689 8.201 8.23zM24.523 5.534c0.006-0 0.013-0 0.020-0 1.061 0 1.922 0.86 1.923 1.921v0c0 0.002 0 0.004 0 0.006 0 1.066-0.864 1.931-1.929 1.933h-0c-1.067-0.007-1.929-0.873-1.931-1.941v-0c0.009-1.056 0.862-1.909 1.917-1.919h0.001z"></path>
</symbol>
<symbol id="icon-internet" viewBox="0 0 32 32">
<path d="M30.629 16.519c-0.001 2.053-0.425 4.007-1.188 5.78l0.036-0.095c-1.151 2.654-2.969 4.834-5.248 6.392l-0.051 0.033c-0.782 0.526-1.618 0.981-2.485 1.349-1.679 0.725-3.634 1.146-5.687 1.146-3.054 0-5.889-0.932-8.238-2.528l0.051 0.033c-2.329-1.591-4.147-3.772-5.261-6.33l-0.037-0.095c-0.729-1.676-1.154-3.629-1.154-5.68 0-1.043 0.11-2.060 0.318-3.041l-0.017 0.095c0.415-1.984 1.181-3.737 2.236-5.277l-0.032 0.050c1.070-1.564 2.383-2.875 3.899-3.91l0.051-0.033c1.491-1.022 3.245-1.786 5.136-2.182l0.094-0.017c0.885-0.189 1.902-0.297 2.944-0.297 2.056 0 4.014 0.421 5.792 1.181l-0.096-0.037c4.389 1.896 7.62 5.747 8.623 10.425l0.017 0.096c0.199 0.96 0.299 1.95 0.299 2.942zM10.67 5.234c-3.496 1.674-6.054 4.828-6.883 8.628l-0.015 0.083c0.329 0.005 5.536 0.069 11.534-1.522-1.595-2.797-3.129-5.145-4.786-7.396l0.146 0.208zM16.343 14.343c-6.432 1.925-12.606 1.785-12.827 1.776-0.002 0.137-0.009 0.265-0.009 0.4 0 3.205 1.211 6.126 3.2 8.334-0.002-0.005 3.415-6.062 10.158-8.24 0.162-0.053 0.329-0.103 0.491-0.149-0.313-0.709-0.654-1.419-1.013-2.121zM24.251 7.154c-2.181-1.93-5.067-3.109-8.227-3.109-0.009 0-0.017 0-0.026 0h0.001c-1.015 0-2 0.121-2.944 0.347 0.187 0.251 2.533 3.36 4.67 7.278 4.713-1.765 6.491-4.471 6.523-4.517zM18.206 18.53l-0.082 0.027c-7.371 2.567-9.778 7.737-9.806 7.794 2.095 1.649 4.772 2.645 7.682 2.645 1.761 0 3.438-0.365 4.957-1.023l-0.081 0.031c-0.664-3.609-1.589-6.787-2.792-9.825l0.123 0.351zM22.978 26.864c2.805-1.907 4.774-4.865 5.343-8.295l0.010-0.073c-1.535-0.469-3.3-0.74-5.128-0.74-0.938 0-1.859 0.071-2.758 0.208l0.101-0.013c0.958 2.503 1.8 5.494 2.38 8.577l0.052 0.335zM18.688 13.529c0.292 0.565 0.661 1.373 1.003 2.195l0.096 0.26c4.293-0.539 8.519 0.368 8.699 0.405-0.025-2.973-1.093-5.692-2.855-7.815l0.016 0.020c-0.023 0.032-2.027 2.923-6.96 4.935z"></path>
</symbol>
<symbol id="icon-location" viewBox="0 0 32 32">
<path d="M4.667 13.757c0-6.133 5.125-11.091 11.324-11.091 6.217 0 11.343 4.957 11.343 11.091 0 3.091-1.124 5.96-2.973 8.392-2.064 2.692-4.507 4.966-7.277 6.785l-0.111 0.069c-0.648 0.424-1.233 0.456-1.945 0-2.887-1.878-5.332-4.153-7.335-6.783l-0.052-0.071c-1.851-2.432-2.973-5.301-2.973-8.392zM12.259 14.103c0 2.053 1.677 3.671 3.733 3.671s3.749-1.616 3.749-3.671c0-2.040-1.693-3.733-3.751-3.733-2.057 0.011-3.721 1.676-3.732 3.732v0.001z"></path>
</symbol>
<symbol id="icon-message" viewBox="0 0 32 32">
<path d="M22.587 4c0.001 0 0.003 0 0.004 0 3.721 0 6.737 3.013 6.743 6.733v10.534c0 3.72-3.027 6.733-6.747 6.733h-13.173c-0.001 0-0.003 0-0.004 0-3.721 0-6.737-3.013-6.743-6.733v-10.534c0 0 0 0 0 0 0-3.719 3.015-6.733 6.733-6.733 0.005 0 0.009 0 0.014 0h13.173zM24.707 12.72l0.107-0.107c0.148-0.177 0.238-0.408 0.238-0.659 0-0.259-0.095-0.495-0.252-0.676l0.001 0.001c-0.18-0.191-0.426-0.319-0.702-0.346l-0.005-0c-0.018-0.001-0.039-0.002-0.060-0.002-0.265 0-0.507 0.102-0.688 0.269l0.001-0.001-6.013 4.8c-0.359 0.299-0.825 0.481-1.333 0.481s-0.975-0.182-1.337-0.484l0.003 0.003-6-4.8c-0.168-0.129-0.382-0.207-0.613-0.207-0.281 0-0.536 0.115-0.72 0.3l-0 0c-0.36 0.36-0.4 0.933-0.093 1.333l0.173 0.173 6.067 4.733c0.708 0.567 1.618 0.909 2.607 0.909s1.898-0.343 2.615-0.916l-0.008 0.006 6.013-4.813z"></path>
</symbol>
<symbol id="icon-search" viewBox="0 0 34 32">
<path d="M1.726 25.736l6.698-6.469c0.953-0.921 2.473-0.894 3.394 0.059s0.894 2.473-0.059 3.394l-6.699 6.469c-0.953 0.921-2.473 0.894-3.394-0.059s-0.894-2.473 0.059-3.394z"></path>
<path stroke-linejoin="miter" stroke-linecap="butt" stroke-miterlimit="4" stroke-width="4.8" d="M29.794 12.579c0 5.622-4.557 10.179-10.179 10.179s-10.179-4.557-10.179-10.179c0-5.622 4.557-10.179 10.179-10.179s10.179 4.557 10.179 10.179z"></path>
</symbol>
<symbol id="icon-twitter" viewBox="0 0 35 32">
<path d="M16.407 8.695l0.076 1.207-1.222-0.145c-4.445-0.567-8.326-2.49-11.622-5.722l-1.612-1.6-0.416 1.181c-0.879 2.639-0.32 5.425 1.513 7.299 0.977 1.036 0.756 1.181-0.928 0.567-0.585-0.198-1.097-0.346-1.146-0.273-0.172 0.175 0.416 2.415 0.879 3.305 0.634 1.233 1.929 2.441 3.345 3.156l1.196 0.567-1.414 0.023c-1.367 0-1.417 0.023-1.271 0.541 0.489 1.603 2.417 3.305 4.567 4.044l1.513 0.518-1.318 0.788c-1.955 1.135-4.247 1.775-6.545 1.824-1.097 0.026-2.001 0.125-2.001 0.198 0 0.247 2.979 1.629 4.713 2.17 5.201 1.6 11.377 0.911 16.017-1.824 3.296-1.949 6.595-5.818 8.131-9.565 0.832-1.999 1.661-5.644 1.661-7.395 0-1.135 0.073-1.283 1.44-2.639 0.806-0.788 1.565-1.652 1.711-1.9 0.244-0.465 0.218-0.465-1.027-0.049-2.074 0.742-2.368 0.64-1.341-0.465 0.756-0.791 1.658-2.22 1.658-2.639 0-0.076-0.364 0.049-0.78 0.271-0.601 0.304-1.314 0.589-2.053 0.813l-0.096 0.025-1.318 0.419-1.196-0.815c-0.66-0.442-1.588-0.937-2.077-1.082-1.245-0.346-3.151-0.297-4.273 0.099-3.052 1.105-4.98 3.968-4.759 7.098z"></path>
</symbol>
<symbol id="icon-youtube" viewBox="0 0 27 32">
<path d="M21.536 12.154h-1.685v-0.983c-0.638 0.738-1.18 1.11-1.771 1.11-0.517 0-0.877-0.245-1.057-0.69-0.11-0.271-0.188-0.693-0.188-1.313v-7.15h1.685v7.328c0.039 0.251 0.145 0.342 0.359 0.342 0.322 0 0.614-0.283 0.971-0.789v-6.88h1.685v9.024zM13.909 9.472c0.087 0.894-0.188 1.338-0.71 1.338s-0.798-0.444-0.709-1.338v-3.573c-0.089-0.895 0.186-1.313 0.709-1.313 0.523 0 0.8 0.418 0.71 1.312v3.574zM15.594 6.077c0-0.964-0.192-1.689-0.532-2.144-0.448-0.619-1.152-0.871-1.862-0.871-0.803 0-1.414 0.253-1.862 0.87-0.346 0.457-0.531 1.188-0.531 2.153l-0.001 3.21c0 0.959 0.164 1.621 0.51 2.074 0.448 0.615 1.175 0.941 1.885 0.941s1.449-0.325 1.899-0.941c0.339-0.452 0.496-1.115 0.496-2.074v-3.217z"></path>
<path d="M8.941 7.238v4.915h-1.773v-4.915s-1.839-6.027-2.219-7.149h1.863l1.245 4.707 1.238-4.707h1.862l-2.218 7.149z"></path>
<path d="M15.967 20.845c-0.265 0-0.567 0.141-0.836 0.407l-0.002 5.42c0.269 0.271 0.574 0.407 0.838 0.407 0.463 0 0.672-0.341 0.672-1.236v-3.842c0-0.894-0.209-1.156-0.672-1.156zM22.581 21.92c0-0.827-0.212-1.075-0.745-1.075-0.537 0-0.764 0.228-0.764 1.063v0.988l1.508-0.001v-0.976z"></path>
<path d="M21.852 27.079c0.396 0 0.626-0.217 0.718-0.649 0.015-0.089 0.012-0.475 0.012-1.123h1.685v0.253c0 0.522-0.043 0.891-0.057 1.053-0.054 0.358-0.181 0.683-0.375 0.97-0.445 0.647-1.104 0.967-1.942 0.967-0.841 0-1.479-0.304-1.945-0.914-0.341-0.448-0.559-1.111-0.559-2.061v-3.127c0-0.955 0.198-1.693 0.54-2.144 0.464-0.611 1.104-0.934 1.923-0.934 0.806 0 1.445 0.323 1.895 0.934 0.336 0.452 0.523 1.15 0.523 2.105v1.827h-3.197v1.604c-0.005 0.825 0.228 1.239 0.779 1.239zM18.324 25.755c0 0.826-0.070 1.408-0.178 1.787-0.213 0.665-0.682 1.009-1.321 1.009-0.571 0-1.156-0.346-1.693-1.014l-0.002 0.899h-1.597v-11.974h1.597l-0.002 3.904c0.519-0.643 1.106-1.009 1.697-1.009 0.64 0 1.069 0.372 1.283 1.041 0.107 0.359 0.215 0.938 0.215 1.783v3.573zM12.204 28.435h-1.685v-0.983c-0.639 0.738-1.181 1.11-1.771 1.11-0.518 0-0.878-0.245-1.058-0.69-0.109-0.271-0.187-0.693-0.187-1.313v-7.060h1.685v7.238c0.039 0.251 0.145 0.342 0.359 0.342 0.322 0 0.614-0.282 0.971-0.789v-6.791h1.685v8.937zM5.818 28.435h-1.775v-10.277h-1.862v-1.696l5.589-0.001v1.697h-1.952v10.277zM26.222 17.346s-0.259-1.83-1.053-2.637c-1.007-1.058-2.137-1.063-2.654-1.125-3.707-0.269-9.266-0.269-9.266-0.269h-0.011s-5.561 0-9.267 0.269c-0.517 0.062-1.646 0.067-2.654 1.125-0.794 0.806-1.053 2.637-1.053 2.637s-0.265 2.149-0.265 4.299v2.016c0 2.149 0.265 4.299 0.265 4.299s0.259 1.831 1.053 2.637c1.008 1.058 2.332 1.025 2.921 1.136 2.119 0.204 9.005 0.267 9.005 0.267s5.566-0.009 9.273-0.277c0.517-0.062 1.647-0.067 2.654-1.125 0.794-0.805 1.053-2.637 1.053-2.637s0.265-2.149 0.265-4.299v-2.016c0-2.149-0.265-4.299-0.265-4.299z"></path>
</symbol>
<symbol id="icon-youtube2" viewBox="0 0 41 32">
<path d="M34.909 3.229c1.606 0.439 2.865 1.737 3.296 3.38 0.777 2.982 0.777 9.201 0.777 9.201s0 6.223-0.78 9.204c-0.427 1.638-1.67 2.91-3.257 3.372l-0.033 0.008c-2.903 0.797-14.548 0.797-14.548 0.797s-11.645 0-14.545-0.797c-1.624-0.468-2.87-1.741-3.292-3.347l-0.007-0.033c-0.774-2.982-0.774-9.204-0.774-9.204s0-6.22 0.777-9.201c0.431-1.644 1.69-2.938 3.293-3.38 2.903-0.8 14.548-0.8 14.548-0.8s11.645 0 14.545 0.8zM16.873 10.575v11.636l9.309-5.818-9.309-5.818z"></path>
</symbol>
<symbol id="icon-mob-menu" viewBox="0 0 32 32">
<path d="M4.8 8c0-0.884 0.716-1.6 1.6-1.6h19.2c0.884 0 1.6 0.716 1.6 1.6s-0.716 1.6-1.6 1.6h-19.2c-0.884 0-1.6-0.716-1.6-1.6v0zM4.8 16c0-0.884 0.716-1.6 1.6-1.6h19.2c0.884 0 1.6 0.716 1.6 1.6s-0.716 1.6-1.6 1.6h-19.2c-0.884 0-1.6-0.716-1.6-1.6v0zM4.8 24c0-0.884 0.716-1.6 1.6-1.6h19.2c0.884 0 1.6 0.716 1.6 1.6s-0.716 1.6-1.6 1.6h-19.2c-0.884 0-1.6-0.716-1.6-1.6v0z"></path>
</symbol>
</defs>
</svg>
